# xmcd CD database file
#
# Track frame offsets:
#	150
#	20585
#	45685
#	67832
#
# Disc length: 1174 seconds
#
# Revision: 0
# Processed by: cddbd v1.5.1PL0 Copyright (c) Steve Scherf et al.
# Submitted via: CDex 1.51
#
DISCID=2b049404
DTITLE=TWIGY - FREEDOM
DYEAR=2001
DGENRE=ヒップ ホップ (一般)
TTITLE0=FREEDOM feat. YOU THE ROCK★ KEYCO
TTITLE1=FREEDOM feat. YOU THE ROCK★ KEYCO (station 79.7 Remix)
TTITLE2=FREEDOM feat. YOU THE ROCK★ KEYCO (Crazy Maririn Remix)
TTITLE3=FREEDOM (Instrumental)
EXTD=YEAR: 2001
EXTT0=
EXTT1=
EXTT2=
EXTT3=
PLAYORDER=
